<?xml version="1.0" encoding="UTF-8" standalone="no"?>
<!-- Created with Inkscape (http://www.inkscape.org/) -->
<svg xmlns:inkscape="http://www.inkscape.org/namespaces/inkscape" xmlns:rdf="http://www.w3.org/1999/02/22-rdf-syntax-ns#" xmlns="http://www.w3.org/2000/svg" xmlns:xlink="http://www.w3.org/1999/xlink" xmlns:ns1="http://sozi.baierouge.fr" xmlns:cc="http://creativecommons.org/ns#" xmlns:sodipodi="http://sodipodi.sourceforge.net/DTD/sodipodi-0.dtd" xmlns:dc="http://purl.org/dc/elements/1.1/" id="svg2" viewBox="0 0 512 341.18" version="1.1" inkscape:version="0.91 r13725">
  <g id="layer1" transform="translate(947.44 2333.4)">
    <g id="g3867" transform="matrix(4.816 0 0 4.816 3615.4 7602.3)">
      <path id="rect3037" style="fill-rule:evenodd;color:#000000;fill:#0030ff" d="m-947.44-2063.1v70.844h106.31v-70.844z"/>
      <g id="g3853">
        <path id="path3039" style="fill:#ffff00" d="m-886.58-2008.7h7.4828l-6.0537 4.3985 2.3123-7.1166 2.3123 7.1166z"/>
        <path id="path3041" style="fill:#ffff00" d="m-878.2-2017h7.4828l-6.0537 4.3985 2.3123-7.1166 2.3123 7.1166z"/>
        <path id="path3063" style="fill:#ffff00" d="m-901.99-2008.7h-7.4828l6.0537 4.3985-2.3123-7.1166-2.3123 7.1166z"/>
        <path id="path3065" style="fill:#ffff00" d="m-910.37-2017h-7.4828l6.0537 4.3985-2.3123-7.1166-2.3123 7.1166z"/>
        <path id="path3069" style="fill:#ffff00" d="m-890.54-2005.6h-7.4828l6.0537 4.3985-2.3123-7.1166-2.3123 7.1166z"/>
        <path id="path3051" style="fill:#ffff00" d="m-901.99-2048.3h-7.4828l6.0537 4.3985-2.3123-7.1166-2.3123 7.1166z"/>
        <path id="path3053" style="fill:#ffff00" d="m-910.37-2039.9h-7.4828l6.0537 4.3985-2.3123-7.1166-2.3123 7.1166z"/>
        <path id="path3055" style="fill:#ffff00" d="m-913.44-2028.5h-7.4828l6.0537 4.3985-2.3123-7.1166-2.3123 7.1166z"/>
        <path id="path3014" style="fill:#ffff00" d="m-886.58-2048.3h7.4828l-6.0537 4.3985 2.3123-7.1166 2.3123 7.1166z"/>
        <path id="path3016" style="fill:#ffff00" d="m-878.2-2039.9h7.4828l-6.0537 4.3985 2.3123-7.1166 2.3123 7.1166z"/>
        <path id="path3018" style="fill:#ffff00" d="m-875.13-2028.5h7.4828l-6.0537 4.3985 2.3123-7.1166 2.3123 7.1166z"/>
        <path id="path3020" style="fill:#ffff00" d="m-898.03-2051.4h7.4828l-6.0537 4.3985 2.3123-7.1166 2.3123 7.1166z"/>
      </g>
    </g>
  </g>
  <metadata>
    <rdf:RDF>
      <cc:Work>
        <dc:format>image/svg+xml</dc:format>
        <dc:type rdf:resource="http://purl.org/dc/dcmitype/StillImage"/>
        <cc:license rdf:resource="http://creativecommons.org/licenses/publicdomain/"/>
        <dc:publisher>
          <cc:Agent rdf:about="http://openclipart.org/">
            <dc:title>Openclipart</dc:title>
          </cc:Agent>
        </dc:publisher>
      </cc:Work>
      <cc:License rdf:about="http://creativecommons.org/licenses/publicdomain/">
        <cc:permits rdf:resource="http://creativecommons.org/ns#Reproduction"/>
        <cc:permits rdf:resource="http://creativecommons.org/ns#Distribution"/>
        <cc:permits rdf:resource="http://creativecommons.org/ns#DerivativeWorks"/>
      </cc:License>
    </rdf:RDF>
  </metadata>
</svg>
